<?xml version="1.0" encoding="utf-8"?>
<!-- Generator: Adobe Illustrator 16.0.0, SVG Export Plug-In . SVG Version: 6.00 Build 0)  -->
<!DOCTYPE svg PUBLIC "-//W3C//DTD SVG 1.1//EN" "http://www.w3.org/Graphics/SVG/1.1/DTD/svg11.dtd">
<svg version="1.1" xmlns="http://www.w3.org/2000/svg" xmlns:xlink="http://www.w3.org/1999/xlink" x="0px" y="0px" width="100px"
	 height="100px" viewBox="266.09 166.84 100 100" enable-background="new 266.09 166.84 100 100" xml:space="preserve">
<g id="Layer_3">
</g>
<g id="Layer_4">
</g>
<g id="Flag_of_Rome" sodipodi:docname="blue_a_v.svg" inkscape:version="0.44.1" sodipodi:version="0.32" sodipodi:docbase="C:\Documents and Settings\Andrea\Documenti\Immagini" xmlns:dc="http://purl.org/dc/elements/1.1/" xmlns:cc="http://web.resource.org/cc/" xmlns:rdf="http://www.w3.org/1999/02/22-rdf-syntax-ns#" xmlns:svg="http://www.w3.org/2000/svg" xmlns:sodipodi="http://sodipodi.sourceforge.net/DTD/sodipodi-0.dtd" xmlns:inkscape="http://www.inkscape.org/namespaces/inkscape">
	
		<sodipodi:namedview  inkscape:window-y="-4" inkscape:window-x="-4" inkscape:window-height="688" inkscape:window-width="1024" inkscape:current-layer="Flag of Rome" inkscape:pageopacity="0.0" inkscape:pageshadow="2" inkscape:cy="200" inkscape:cx="300" inkscape:zoom="1.2175" borderopacity="1.0" bordercolor="#666666" pagecolor="#ffffff" id="base" guidetolerance="10.0" objecttolerance="10.0" gridtolerance="10.0">
		</sodipodi:namedview>
	<g>
		<path fill="#FF0000" d="M366.09,261.127c0,3.141-2.571,5.713-5.712,5.713h-88.574c-3.141,0-5.714-2.572-5.714-5.713v-88.572
			c0-3.143,2.573-5.715,5.714-5.715h88.574c3.141,0,5.712,2.572,5.712,5.715V261.127z"/>
		<g>
			<g id="rect3">
				<g>
					<rect x="283.614" y="195.189" fill="#FFFFFF" width="64.951" height="43.301"/>
				</g>
			</g>
			<path fill="#FF0000" d="M287.039,195.189c19.626,15.178,26.717,20.667,29.311,22.685l28.934-22.685h3.282v2.929l-30.872,24.204
				c-0.395,0.31-0.866,0.462-1.336,0.462c-0.485,0-0.969-0.163-1.363-0.483c-0.205-0.161-2.641-2.061-31.38-24.286v-2.826H287.039z"
				/>
		</g>
	</g>
</g>
<g id="Layer_2">
</g>
</svg>
