<?xml version="1.0" encoding="utf-8"?>
<!-- Generator: Adobe Illustrator 16.0.0, SVG Export Plug-In . SVG Version: 6.00 Build 0)  -->
<!DOCTYPE svg PUBLIC "-//W3C//DTD SVG 1.1//EN" "http://www.w3.org/Graphics/SVG/1.1/DTD/svg11.dtd">
<svg version="1.1" id="Layer_1" xmlns="http://www.w3.org/2000/svg" xmlns:xlink="http://www.w3.org/1999/xlink" x="0px" y="0px"
	 width="100px" height="100px" viewBox="0 0 100 100" enable-background="new 0 0 100 100" xml:space="preserve">
    <g>
        <path fill="#3C5A98" d="M100,94.286c0,3.142-2.572,5.714-5.714,5.714H5.714C2.573,100,0,97.428,0,94.286V5.714
            C0,2.573,2.573,0,5.714,0h88.572C97.428,0,100,2.573,100,5.714V94.286z"/>
        <path fill="#FFFFFF" d="M57.143,92.857V56.094h-9.721V42.857h9.721c0,0,0-5.424,0-11.306c0-8.884,5.742-17.042,18.974-17.042
            c5.356,0,9.319,0.514,9.319,0.514l-0.312,12.36c0,0-4.041-0.039-8.449-0.039c-4.771,0-5.535,2.199-5.535,5.848
            c0,2.885,0-6.149,0,9.665h14.363l-0.625,13.237H71.139v36.764H57.143z"/>
    </g>
</svg>
