<?xml version="1.0" encoding="utf-8"?>
<!-- Generator: Adobe Illustrator 16.0.0, SVG Export Plug-In . SVG Version: 6.00 Build 0)  -->
<!DOCTYPE svg PUBLIC "-//W3C//DTD SVG 1.1//EN" "http://www.w3.org/Graphics/SVG/1.1/DTD/svg11.dtd">
<svg version="1.1" xmlns="http://www.w3.org/2000/svg" xmlns:xlink="http://www.w3.org/1999/xlink" x="0px" y="0px" width="100px"
	 height="100px" viewBox="201.32 -10.27 100 100" enable-background="new 201.32 -10.27 100 100" xml:space="preserve">
<g id="Layer_2">
</g>
<g id="svg3070" sodipodi:docname="New document 4" inkscape:version="0.48.0 r9654" xmlns:dc="http://purl.org/dc/elements/1.1/" xmlns:cc="http://creativecommons.org/ns#" xmlns:rdf="http://www.w3.org/1999/02/22-rdf-syntax-ns#" xmlns:svg="http://www.w3.org/2000/svg" xmlns:sodipodi="http://sodipodi.sourceforge.net/DTD/sodipodi-0.dtd" xmlns:inkscape="http://www.inkscape.org/namespaces/inkscape">
	
		<sodipodi:namedview  inkscape:window-maximized="1" inkscape:window-y="-8" inkscape:window-x="-8" inkscape:window-height="750" inkscape:window-width="1280" fit-margin-bottom="0" inkscape:current-layer="layer1" inkscape:document-units="px" inkscape:pageopacity="0.0" fit-margin-right="0" inkscape:pageshadow="2" fit-margin-left="0" fit-margin-top="0" showgrid="false" inkscape:cy="33.703355" inkscape:cx="142.93233" inkscape:zoom="2.8" borderopacity="1.0" bordercolor="#666666" pagecolor="#ffffff" id="base">
		</sodipodi:namedview>
	<g>
		<path fill="#0073B2" d="M301.32,84.018c0,3.14-2.571,5.712-5.712,5.712h-88.574c-3.141,0-5.714-2.572-5.714-5.712V-4.555
			c0-3.143,2.573-5.715,5.714-5.715h88.574c3.141,0,5.712,2.572,5.712,5.715V84.018z"/>
		<path id="path28" inkscape:connector-curvature="0" fill="#FFFFFF" d="M232.545,73.25V28.198h-14.976V73.25H232.545z
			 M225.058,22.046c5.221,0,8.473-3.46,8.473-7.784c-0.098-4.42-3.252-7.784-8.374-7.784c-5.123,0-8.471,3.363-8.471,7.784
			c0,4.324,3.249,7.784,8.274,7.784H225.058L225.058,22.046z"/>
		<path id="path30" inkscape:connector-curvature="0" fill="#FFFFFF" d="M240.832,73.25h14.975V48.09
			c0-1.347,0.097-2.69,0.492-3.655c1.082-2.689,3.547-5.475,7.683-5.475c5.42,0,7.587,4.131,7.587,10.186V73.25h14.974V47.418
			c0-13.839-7.389-20.279-17.24-20.279c-8.077,0-11.624,4.516-13.596,7.592h0.101v-6.534h-14.975
			C241.029,32.425,240.832,73.25,240.832,73.25L240.832,73.25z"/>
	</g>
</g>
</svg>
