<?xml version="1.0" encoding="utf-8"?>
<!-- Generator: Adobe Illustrator 16.0.0, SVG Export Plug-In . SVG Version: 6.00 Build 0)  -->
<!DOCTYPE svg PUBLIC "-//W3C//DTD SVG 1.1//EN" "http://www.w3.org/Graphics/SVG/1.1/DTD/svg11.dtd">
<svg version="1.1" xmlns="http://www.w3.org/2000/svg" xmlns:xlink="http://www.w3.org/1999/xlink" x="0px" y="0px" width="100px"
	 height="100px" viewBox="0 0 100 100" enable-background="new 0 0 100 100" xml:space="preserve">
<g id="Layer_1">
	<g>
		<path fill="#00ACED" d="M100,94.286c0,3.142-2.572,5.714-5.714,5.714H5.714C2.573,100,0,97.428,0,94.286V5.714
			C0,2.573,2.573,0,5.714,0h88.572C97.428,0,100,2.573,100,5.714V94.286z"/>
		<path fill="#FFFFFF" d="M83.333,29.325c-2.452,1.088-5.089,1.823-7.855,2.153c2.824-1.692,4.993-4.373,6.014-7.567
			c-2.643,1.567-5.569,2.706-8.686,3.319c-2.494-2.658-6.049-4.319-9.983-4.319c-7.553,0-13.677,6.124-13.677,13.677
			c0,1.072,0.121,2.116,0.354,3.117c-11.367-0.57-21.445-6.016-28.191-14.291c-1.178,2.02-1.852,4.37-1.852,6.876
			c0,4.746,2.415,8.932,6.084,11.385c-2.242-0.071-4.351-0.687-6.195-1.711c-0.001,0.057-0.001,0.114-0.001,0.172
			c0,6.627,4.715,12.155,10.972,13.412c-1.147,0.312-2.356,0.479-3.604,0.479c-0.881,0-1.738-0.086-2.573-0.245
			c1.741,5.434,6.792,9.389,12.777,9.498c-4.681,3.669-10.579,5.855-16.987,5.855c-1.104,0-2.192-0.064-3.263-0.191
			c6.053,3.881,13.243,6.146,20.966,6.146c25.158,0,38.915-20.842,38.915-38.916c0-0.593-0.013-1.183-0.039-1.77
			C79.181,34.476,81.5,32.067,83.333,29.325z"/>
	</g>
</g>
</svg>
